<svg width="30" height="29" viewBox="0 0 30 29" fill="none" xmlns="http://www.w3.org/2000/svg">
<path d="M21.25 16.9167C21.5815 16.9167 21.8995 16.7894 22.1339 16.5628C22.3683 16.3361 22.5 16.0288 22.5 15.7083C22.5 15.3879 22.3683 15.0805 22.1339 14.8539C21.8995 14.6273 21.5815 14.5 21.25 14.5C20.9185 14.5 20.6005 14.6273 20.3661 14.8539C20.1317 15.0805 20 15.3879 20 15.7083C20 16.0288 20.1317 16.3361 20.3661 16.5628C20.6005 16.7894 20.9185 16.9167 21.25 16.9167ZM21.25 21.75C21.5815 21.75 21.8995 21.6227 22.1339 21.3961C22.3683 21.1695 22.5 20.8621 22.5 20.5417C22.5 20.2212 22.3683 19.9139 22.1339 19.6872C21.8995 19.4606 21.5815 19.3333 21.25 19.3333C20.9185 19.3333 20.6005 19.4606 20.3661 19.6872C20.1317 19.9139 20 20.2212 20 20.5417C20 20.8621 20.1317 21.1695 20.3661 21.3961C20.6005 21.6227 20.9185 21.75 21.25 21.75ZM16.25 15.7083C16.25 16.0288 16.1183 16.3361 15.8839 16.5628C15.6495 16.7894 15.3315 16.9167 15 16.9167C14.6685 16.9167 14.3505 16.7894 14.1161 16.5628C13.8817 16.3361 13.75 16.0288 13.75 15.7083C13.75 15.3879 13.8817 15.0805 14.1161 14.8539C14.3505 14.6273 14.6685 14.5 15 14.5C15.3315 14.5 15.6495 14.6273 15.8839 14.8539C16.1183 15.0805 16.25 15.3879 16.25 15.7083ZM16.25 20.5417C16.25 20.8621 16.1183 21.1695 15.8839 21.3961C15.6495 21.6227 15.3315 21.75 15 21.75C14.6685 21.75 14.3505 21.6227 14.1161 21.3961C13.8817 21.1695 13.75 20.8621 13.75 20.5417C13.75 20.2212 13.8817 19.9139 14.1161 19.6872C14.3505 19.4606 14.6685 19.3333 15 19.3333C15.3315 19.3333 15.6495 19.4606 15.8839 19.6872C16.1183 19.9139 16.25 20.2212 16.25 20.5417ZM8.75 16.9167C9.08152 16.9167 9.39946 16.7894 9.63388 16.5628C9.8683 16.3361 10 16.0288 10 15.7083C10 15.3879 9.8683 15.0805 9.63388 14.8539C9.39946 14.6273 9.08152 14.5 8.75 14.5C8.41848 14.5 8.10054 14.6273 7.86612 14.8539C7.6317 15.0805 7.5 15.3879 7.5 15.7083C7.5 16.0288 7.6317 16.3361 7.86612 16.5628C8.10054 16.7894 8.41848 16.9167 8.75 16.9167ZM8.75 21.75C9.08152 21.75 9.39946 21.6227 9.63388 21.3961C9.8683 21.1695 10 20.8621 10 20.5417C10 20.2212 9.8683 19.9139 9.63388 19.6872C9.39946 19.4606 9.08152 19.3333 8.75 19.3333C8.41848 19.3333 8.10054 19.4606 7.86612 19.6872C7.6317 19.9139 7.5 20.2212 7.5 20.5417C7.5 20.8621 7.6317 21.1695 7.86612 21.3961C8.10054 21.6227 8.41848 21.75 8.75 21.75Z" fill="#3D3B3A"/>
<path fill-rule="evenodd" clip-rule="evenodd" d="M8.74997 2.11462C8.99861 2.11462 9.23707 2.2101 9.41288 2.38006C9.5887 2.55001 9.68747 2.78052 9.68747 3.02087V3.94283C10.515 3.92712 11.4262 3.92712 12.4287 3.92712H17.57C18.5737 3.92712 19.485 3.92712 20.3125 3.94283V3.02087C20.3125 2.78052 20.4112 2.55001 20.5871 2.38006C20.7629 2.2101 21.0013 2.11462 21.25 2.11462C21.4986 2.11462 21.7371 2.2101 21.9129 2.38006C22.0887 2.55001 22.1875 2.78052 22.1875 3.02087V4.02017C22.5125 4.04433 22.82 4.07454 23.1112 4.112C24.5762 4.30292 25.7625 4.70408 26.6987 5.60792C27.6337 6.51296 28.0487 7.65967 28.2462 9.07583C28.4375 10.4533 28.4375 12.2115 28.4375 14.4324V16.9844C28.4375 19.2053 28.4375 20.9646 28.2462 22.3409C28.0487 23.7571 27.6337 24.9038 26.6987 25.8088C25.7625 26.7127 24.5762 27.1138 23.1112 27.3048C21.6862 27.4896 19.8675 27.4896 17.57 27.4896H12.4312C10.1337 27.4896 8.31372 27.4896 6.88997 27.3048C5.42497 27.1138 4.23872 26.7127 3.30247 25.8088C2.36747 24.9038 1.95247 23.7571 1.75497 22.3409C1.56372 20.9634 1.56372 19.2053 1.56372 16.9844V14.4324C1.56372 12.2115 1.56372 10.4521 1.75497 9.07583C1.95247 7.65967 2.36747 6.51296 3.30247 5.60792C4.23872 4.70408 5.42497 4.30292 6.88997 4.112C7.18122 4.07454 7.48997 4.04433 7.81372 4.02017V3.02087C7.81372 2.78073 7.91232 2.55041 8.08787 2.38049C8.26341 2.21057 8.50155 2.11494 8.74997 2.11462ZM7.13747 5.90879C5.88122 6.07192 5.15622 6.37883 4.62747 6.88996C4.09872 7.40108 3.78122 8.10192 3.61247 9.3175C3.58372 9.52292 3.55997 9.74042 3.53997 9.96879H26.46C26.44 9.73921 26.4162 9.52292 26.3875 9.31629C26.2187 8.10192 25.9012 7.40108 25.3725 6.88996C24.8437 6.37883 24.1187 6.07192 22.8612 5.90879C21.5775 5.74204 19.8837 5.73962 17.5 5.73962H12.5C10.1162 5.73962 8.42372 5.74204 7.13747 5.90879ZM3.43747 14.5C3.43747 13.4681 3.43747 12.5703 3.45372 11.7813H26.5462C26.5625 12.5703 26.5625 13.4681 26.5625 14.5V16.9167C26.5625 19.221 26.56 20.8583 26.3875 22.1005C26.2187 23.3148 25.9012 24.0157 25.3725 24.5268C24.8437 25.0379 24.1187 25.3448 22.8612 25.508C21.5775 25.6747 19.8837 25.6771 17.5 25.6771H12.5C10.1162 25.6771 8.42372 25.6747 7.13747 25.508C5.88122 25.3448 5.15622 25.0379 4.62747 24.5268C4.09872 24.0157 3.78122 23.3148 3.61247 22.0992C3.43997 20.8583 3.43747 19.221 3.43747 16.9167V14.5Z" fill="#3D3B3A"/>
</svg>

