<svg width="32" height="30" viewBox="0 0 32 30" fill="none" xmlns="http://www.w3.org/2000/svg">
<path d="M10.6667 15H10.6787M15.9881 15H16.0001M21.3214 15H21.3334" stroke="#3D3B3A" stroke-width="2" stroke-linecap="round" stroke-linejoin="round"/>
<path d="M16.0001 27.5C23.3641 27.5 29.3334 21.9037 29.3334 15C29.3334 8.09625 23.3641 2.5 16.0001 2.5C8.63608 2.5 2.66675 8.09625 2.66675 15C2.66675 17 3.16808 18.89 4.05741 20.5662C4.29475 21.0112 4.37341 21.52 4.23608 22.0012L3.44275 24.7837C3.36418 25.0591 3.36425 25.349 3.44295 25.6243C3.52166 25.8997 3.67624 26.1507 3.89117 26.3524C4.1061 26.554 4.37381 26.6991 4.66745 26.773C4.96109 26.847 5.27031 26.8472 5.56408 26.7737L8.53208 26.0287C9.04729 25.9072 9.59212 25.9663 10.0641 26.195C11.908 27.0558 13.9402 27.5026 16.0001 27.5Z" stroke="#3D3B3A" stroke-width="1.5"/>
</svg>
