<svg width="32" height="32" viewBox="0 0 32 32" fill="none" xmlns="http://www.w3.org/2000/svg">
<path fill-rule="evenodd" clip-rule="evenodd" d="M14.592 1.66669H17.408C19.8587 1.66669 21.8 1.66669 23.3187 1.87069C24.8813 2.08135 26.1467 2.52402 27.1453 3.52135C27.322 3.71092 27.4181 3.96165 27.4136 4.22072C27.409 4.47979 27.304 4.72697 27.1208 4.91018C26.9376 5.0934 26.6904 5.19835 26.4314 5.20292C26.1723 5.20749 25.9216 5.11133 25.732 4.93469C25.1667 4.37202 24.3933 4.03335 23.052 3.85335C21.6827 3.66935 19.876 3.66669 17.3333 3.66669H14.6667C12.124 3.66669 10.3187 3.66935 8.94667 3.85335C7.60667 4.03335 6.83333 4.37202 6.26933 4.93602C5.70533 5.50002 5.36667 6.27335 5.18667 7.61469C5.00267 8.98535 5 10.7907 5 13.3334V18.6667C5 21.2094 5.00267 23.016 5.18667 24.3867C5.36667 25.7267 5.70533 26.5 6.26933 27.064C6.83333 27.628 7.60667 27.9667 8.948 28.1467C10.3187 28.3307 12.124 28.3334 14.6667 28.3334H17.3333C19.876 28.3334 21.6827 28.3307 23.0533 28.1467C24.3933 27.9667 25.1667 27.628 25.7307 27.064C26.6587 26.136 26.94 24.6947 26.988 21.3187C26.9919 21.0535 27.101 20.8007 27.2913 20.6159C27.4816 20.4311 27.7374 20.3295 28.0027 20.3334C28.2679 20.3372 28.5207 20.4463 28.7055 20.6366C28.8903 20.8269 28.9919 21.0828 28.988 21.348C28.9413 24.584 28.732 26.892 27.1453 28.4787C26.1467 29.476 24.8813 29.9187 23.3187 30.1294C21.7987 30.3334 19.8587 30.3334 17.408 30.3334H14.592C12.1413 30.3334 10.2 30.3334 8.68133 30.1294C7.11867 29.9187 5.85333 29.476 4.85467 28.4787C3.85733 27.48 3.41467 26.2147 3.204 24.652C3 23.132 3 21.192 3 18.7414V13.2587C3 10.808 3 8.86669 3.204 7.34802C3.41467 5.78535 3.85733 4.52002 4.85467 3.52135C5.85333 2.52402 7.11867 2.08135 8.68133 1.87069C10.2013 1.66669 12.1413 1.66669 14.592 1.66669ZM24.152 9.39469C24.4853 9.04578 24.885 8.76699 25.3276 8.57472C25.7701 8.38245 26.2466 8.28056 26.7291 8.27504C27.2116 8.26953 27.6904 8.36049 28.1372 8.5426C28.5841 8.7247 28.99 8.99427 29.3312 9.33547C29.6724 9.67667 29.942 10.0826 30.1241 10.5295C30.3062 10.9763 30.3972 11.455 30.3916 11.9375C30.3861 12.42 30.2842 12.8966 30.092 13.3391C29.8997 13.7817 29.6209 14.1814 29.272 14.5147L22.9333 20.8574C22.6696 21.1352 22.3891 21.3966 22.0933 21.64C21.7867 21.88 21.4533 22.0854 21.1013 22.2534C20.8027 22.396 20.488 22.5 20.0267 22.6534L17.248 23.58C16.9471 23.6807 16.6241 23.6955 16.3153 23.6228C16.0065 23.5501 15.724 23.3927 15.4997 23.1683C15.2753 22.944 15.118 22.6615 15.0452 22.3527C14.9725 22.0439 14.9873 21.7209 15.088 21.42L15.996 18.7L16.0147 18.6427C16.1693 18.18 16.2733 17.8667 16.416 17.568C16.5838 17.2161 16.7895 16.8835 17.0293 16.576C17.2333 16.3147 17.4667 16.0814 17.812 15.736L17.8533 15.6947L24.152 9.39469ZM27.8587 10.808C27.7081 10.6574 27.5293 10.5379 27.3326 10.4564C27.1358 10.3749 26.925 10.3329 26.712 10.3329C26.499 10.3329 26.2882 10.3749 26.0914 10.4564C25.8947 10.5379 25.7159 10.6574 25.5653 10.808L25.3227 11.0507C25.336 11.0947 25.3507 11.144 25.368 11.1934C25.4933 11.5534 25.732 12.0334 26.1827 12.484C26.5815 12.8854 27.0742 13.1809 27.616 13.344L27.8587 13.1014C28.0093 12.9508 28.1288 12.772 28.2103 12.5753C28.2918 12.3785 28.3338 12.1677 28.3338 11.9547C28.3338 11.7417 28.2918 11.5308 28.2103 11.3341C28.1288 11.1373 28.0093 10.9586 27.8587 10.808ZM26.088 14.872C25.6014 14.6161 25.1563 14.2879 24.768 13.8987C24.3788 13.5104 24.0506 13.0653 23.7947 12.5787L19.2667 17.1067C18.8653 17.508 18.724 17.652 18.6053 17.804C18.4547 17.9974 18.3253 18.2067 18.22 18.4267C18.1373 18.6014 18.072 18.792 17.892 19.3307L17.3587 20.9307L17.736 21.308L19.336 20.7747C19.8747 20.5947 20.0653 20.5294 20.24 20.4467C20.46 20.34 20.6693 20.212 20.8627 20.0614C21.0147 19.9427 21.1587 19.8014 21.56 19.4L26.088 14.872ZM9.66667 12C9.66667 11.7348 9.77202 11.4804 9.95956 11.2929C10.1471 11.1054 10.4014 11 10.6667 11H19.3333C19.5985 11 19.8529 11.1054 20.0404 11.2929C20.228 11.4804 20.3333 11.7348 20.3333 12C20.3333 12.2652 20.228 12.5196 20.0404 12.7071C19.8529 12.8947 19.5985 13 19.3333 13H10.6667C10.4014 13 10.1471 12.8947 9.95956 12.7071C9.77202 12.5196 9.66667 12.2652 9.66667 12ZM9.66667 17.3334C9.66667 17.0681 9.77202 16.8138 9.95956 16.6262C10.1471 16.4387 10.4014 16.3334 10.6667 16.3334H14C14.2652 16.3334 14.5196 16.4387 14.7071 16.6262C14.8946 16.8138 15 17.0681 15 17.3334C15 17.5986 14.8946 17.8529 14.7071 18.0405C14.5196 18.228 14.2652 18.3334 14 18.3334H10.6667C10.4014 18.3334 10.1471 18.228 9.95956 18.0405C9.77202 17.8529 9.66667 17.5986 9.66667 17.3334ZM9.66667 22.6667C9.66667 22.4015 9.77202 22.1471 9.95956 21.9596C10.1471 21.772 10.4014 21.6667 10.6667 21.6667H12.6667C12.9319 21.6667 13.1862 21.772 13.3738 21.9596C13.5613 22.1471 13.6667 22.4015 13.6667 22.6667C13.6667 22.9319 13.5613 23.1863 13.3738 23.3738C13.1862 23.5613 12.9319 23.6667 12.6667 23.6667H10.6667C10.4014 23.6667 10.1471 23.5613 9.95956 23.3738C9.77202 23.1863 9.66667 22.9319 9.66667 22.6667Z" fill="#3D3B3A"/>
</svg>
