<svg width="396" height="71" viewBox="0 0 396 71" fill="none" xmlns="http://www.w3.org/2000/svg">
<path d="M48.1 -4.76837e-06V10.1H10.7V29.9H45.5V39.9H10.7V30C4.8 30 2.38419e-07 25.2 2.38419e-07 19.3V10.7C2.38419e-07 4.8 4.8 -4.76837e-06 10.7 -4.76837e-06H48.1ZM2.38419e-07 70V50.6C2.38419e-07 44.7 4.8 39.9 10.7 39.9V70H2.38419e-07ZM70.6586 18.6V28H94.7586V18.6H70.6586ZM60.0586 70V38.3C60.0586 32.6 64.7586 28 70.4586 28V70H60.0586ZM116.238 18.6H144.038C149.238 18.6 153.438 22.8 153.438 28.1V40.8H153.338C152.938 45.6 148.938 49.3 144.038 49.3H117.138V39.8H143.138V28.1H117.138V39.8C111.438 39.8 106.738 35.2 106.738 29.5V28.1H106.838C106.838 22.8 111.038 18.6 116.238 18.6ZM106.738 59.7V59.6C106.738 53.9 111.438 49.3 117.138 49.3V60.6H151.538V70H117.138C109.938 70 106.738 65.4 106.738 59.7ZM174.93 18.6H202.73C207.93 18.6 212.13 22.8 212.13 28.1V40.8H212.03C211.63 45.6 207.63 49.3 202.73 49.3H175.83V39.8H201.83V28.1H175.83V39.8C170.13 39.8 165.43 35.2 165.43 29.5V28.1H165.53C165.53 22.8 169.73 18.6 174.93 18.6ZM165.43 59.7V59.6C165.43 53.9 170.13 49.3 175.83 49.3V60.6H210.23V70H175.83C168.63 70 165.43 65.4 165.43 59.7ZM234.821 -4.76837e-06V60C228.921 60 224.121 55.2 224.121 49.3V-4.76837e-06H234.821ZM270.421 60V70H234.921V60H270.421ZM287.622 18.6H320.822C326.022 18.6 330.222 22.8 330.222 28V60.6H319.922V49H292.822V60.6H319.922V70H291.922C286.622 70 282.422 65.8 282.422 60.6V49C282.422 43.8 286.622 39.6 291.922 39.6H319.922V28H287.622V18.6ZM352.888 10.1V30H384.988V40H352.888V60H384.988V40C390.888 40 395.688 44.8 395.688 50.7V59.4C395.688 65.3 390.888 70.1 384.988 70.1V70H352.788C346.888 70 342.188 65.2 342.188 59.3V10H352.888V-4.76837e-06H384.988C390.888 -4.76837e-06 395.688 4.8 395.688 10.7V30H384.988V10.1H352.888Z" fill="#231F1C"/>
</svg>
