<svg width="792" height="141" viewBox="0 0 792 141" fill="none" xmlns="http://www.w3.org/2000/svg">
<path d="M96.2 -9.53674e-06V20.2H21.4V59.8H91V79.8H21.4V60C9.6 60 4.76837e-07 50.4 4.76837e-07 38.6V21.4C4.76837e-07 9.6 9.6 -9.53674e-06 21.4 -9.53674e-06H96.2ZM4.76837e-07 140V101.2C4.76837e-07 89.4 9.6 79.8 21.4 79.8V140H4.76837e-07ZM141.317 37.2V56H189.517V37.2H141.317ZM120.117 140V76.6C120.117 65.2 129.517 56 140.917 56V140H120.117ZM232.477 37.2H288.077C298.477 37.2 306.877 45.6 306.877 56.2V81.6H306.677C305.877 91.2 297.877 98.6 288.077 98.6H234.277V79.6H286.277V56.2H234.277V79.6C222.877 79.6 213.477 70.4 213.477 59V56.2H213.677C213.677 45.6 222.077 37.2 232.477 37.2ZM213.477 119.4V119.2C213.477 107.8 222.877 98.6 234.277 98.6V121.2H303.077V140H234.277C219.877 140 213.477 130.8 213.477 119.4ZM349.859 37.2H405.459C415.859 37.2 424.259 45.6 424.259 56.2V81.6H424.059C423.259 91.2 415.259 98.6 405.459 98.6H351.659V79.6H403.659V56.2H351.659V79.6C340.259 79.6 330.859 70.4 330.859 59V56.2H331.059C331.059 45.6 339.459 37.2 349.859 37.2ZM330.859 119.4V119.2C330.859 107.8 340.259 98.6 351.659 98.6V121.2H420.459V140H351.659C337.259 140 330.859 130.8 330.859 119.4ZM469.642 -9.53674e-06V120C457.842 120 448.242 110.4 448.242 98.6V-9.53674e-06H469.642ZM540.842 120V140H469.842V120H540.842ZM575.244 37.2H641.644C652.044 37.2 660.444 45.6 660.444 56V121.2H639.844V98H585.644V121.2H639.844V140H583.844C573.244 140 564.844 131.6 564.844 121.2V98C564.844 87.6 573.244 79.2 583.844 79.2H639.844V56H575.244V37.2ZM705.775 20.2V60H769.975V80H705.775V120H769.975V80C781.775 80 791.375 89.6 791.375 101.4V118.8C791.375 130.6 781.775 140.2 769.975 140.2V140H705.575C693.775 140 684.375 130.4 684.375 118.6V20H705.775V-9.53674e-06H769.975C781.775 -9.53674e-06 791.375 9.6 791.375 21.4V60H769.975V20.2H705.775Z" fill="white"/>
</svg>
