<svg width="33" height="31" viewBox="0 0 33 31" fill="none" xmlns="http://www.w3.org/2000/svg">
<g clip-path="url(#clip0_417_307)">
<path d="M18.15 3.42292C17.674 3.08754 17.095 2.90625 16.5 2.90625C15.905 2.90625 15.326 3.08754 14.85 3.42292L5.225 10.2042C4.88346 10.4448 4.60625 10.7568 4.41533 11.1155C4.2244 11.4742 4.125 11.8698 4.125 12.2708V24.5417C4.125 25.2268 4.41473 25.8839 4.93046 26.3684C5.44618 26.8528 6.14565 27.125 6.875 27.125H12.2375C12.6386 27.125 13.0233 26.9753 13.307 26.7088C13.5906 26.4424 13.75 26.081 13.75 25.7042V19.375C13.75 18.6899 14.0397 18.0328 14.5555 17.5483C15.0712 17.0638 15.7707 16.7917 16.5 16.7917C17.2293 16.7917 17.9288 17.0638 18.4445 17.5483C18.9603 18.0328 19.25 18.6899 19.25 19.375V25.7042C19.25 26.081 19.4094 26.4424 19.693 26.7088C19.9767 26.9753 20.3614 27.125 20.7625 27.125H26.125C26.8543 27.125 27.5538 26.8528 28.0695 26.3684C28.5853 25.8839 28.875 25.2268 28.875 24.5417V12.2708C28.875 11.8698 28.7756 11.4742 28.5847 11.1155C28.3937 10.7568 28.1165 10.4448 27.775 10.2042L18.15 3.42292Z" fill="#2444B5"/>
</g>
<defs>
<clipPath id="clip0_417_307">
<rect width="33" height="31" fill="white"/>
</clipPath>
</defs>
</svg>
