<svg width="36" height="32" viewBox="0 0 36 32" fill="none" xmlns="http://www.w3.org/2000/svg">
<path d="M28.5 16C28.5 16.3536 28.342 16.6927 28.0607 16.9428C27.7794 17.1928 27.3978 17.3333 27 17.3333C26.6022 17.3333 26.2206 17.1928 25.9393 16.9428C25.658 16.6927 25.5 16.3536 25.5 16C25.5 15.6463 25.658 15.3072 25.9393 15.0572C26.2206 14.8071 26.6022 14.6666 27 14.6666C27.3978 14.6666 27.7794 14.8071 28.0607 15.0572C28.342 15.3072 28.5 15.6463 28.5 16Z" fill="#3D3B3A"/>
<path fill-rule="evenodd" clip-rule="evenodd" d="M14.916 4.33337H19.584C22.341 4.33337 24.525 4.33337 26.2335 4.53737C27.9915 4.74804 29.415 5.19071 30.5385 6.18804C31.9245 7.42137 32.367 9.07204 32.5275 11.2147C33.393 11.552 34.047 12.268 34.1175 13.1747C34.125 13.256 34.125 13.3427 34.125 13.4227V18.5774C34.125 18.6574 34.125 18.744 34.119 18.824C34.047 19.7307 33.393 20.448 32.5275 20.7867C32.367 22.928 31.9245 24.5787 30.5385 25.812C29.415 26.8094 27.9915 27.252 26.2335 27.4627C24.5235 27.6667 22.341 27.6667 19.584 27.6667H14.916C12.159 27.6667 9.975 27.6667 8.2665 27.4627C6.5085 27.252 5.085 26.8094 3.9615 25.812C2.8395 24.8134 2.3415 23.548 2.1045 21.9854C1.875 20.4654 1.875 18.5254 1.875 16.0747V15.9254C1.875 13.4747 1.875 11.5334 2.1045 10.0147C2.3415 8.45204 2.8395 7.18671 3.9615 6.18804C5.085 5.19071 6.5085 4.74804 8.2665 4.53737C9.9765 4.33337 12.159 4.33337 14.916 4.33337ZM30.252 21H27.345C24.1275 21 21.3735 18.8294 21.3735 16C21.3735 13.1707 24.1275 11 27.3435 11H30.2505C30.0795 9.21204 29.694 8.26671 28.9455 7.60271C28.311 7.03871 27.441 6.70004 25.932 6.52004C24.3915 6.33604 22.359 6.33337 19.4985 6.33337H14.9985C12.138 6.33337 10.107 6.33604 8.5635 6.52004C7.056 6.70004 6.186 7.03871 5.5515 7.60271C4.917 8.16671 4.536 8.94004 4.3335 10.2814C4.1265 11.652 4.1235 13.4574 4.1235 16C4.1235 18.5427 4.1265 20.3494 4.3335 21.72C4.536 23.06 4.917 23.8334 5.5515 24.3974C6.186 24.9614 7.056 25.3 8.565 25.48C10.107 25.664 12.138 25.6667 14.9985 25.6667H19.4985C22.359 25.6667 24.3915 25.664 25.9335 25.48C27.441 25.3 28.311 24.9614 28.9455 24.3974C29.694 23.7334 30.081 22.7894 30.252 21ZM7.875 10.6667C7.875 10.4015 7.99353 10.1471 8.2045 9.9596C8.41548 9.77206 8.70163 9.66671 9 9.66671H15C15.2984 9.66671 15.5845 9.77206 15.7955 9.9596C16.0065 10.1471 16.125 10.4015 16.125 10.6667C16.125 10.9319 16.0065 11.1863 15.7955 11.3738C15.5845 11.5614 15.2984 11.6667 15 11.6667H9C8.70163 11.6667 8.41548 11.5614 8.2045 11.3738C7.99353 11.1863 7.875 10.9319 7.875 10.6667ZM31.386 13H27.345C25.209 13 23.6235 14.412 23.6235 16C23.6235 17.588 25.209 19 27.3435 19H31.4205C31.7295 18.9827 31.863 18.7974 31.8735 18.6854V13.3147C31.863 13.2027 31.7295 13.0174 31.4205 13.0014L31.386 13Z" fill="#3D3B3A"/>
</svg>
