<svg width="32" height="36" viewBox="0 0 32 36" fill="none" xmlns="http://www.w3.org/2000/svg">
<path d="M4 22.5V25.2C4 26.88 4 27.72 4.29067 28.362C4.54633 28.9265 4.95426 29.3854 5.456 29.673C6.02533 30 6.772 30 8.26267 30H28M4 22.5V7.5M4 22.5L9.13733 17.685L9.14267 17.6805C10.072 16.809 10.5373 16.3725 11.0427 16.1955C11.6388 15.9858 12.2815 16.0182 12.8587 16.287C13.348 16.5165 13.776 16.998 14.6347 17.964L14.6427 17.973C15.5147 18.954 15.9507 19.446 16.448 19.6725C17.0366 19.9423 17.6915 19.9668 18.2947 19.7415C18.8053 19.5495 19.272 19.0905 20.2053 18.1725L28 10.5" stroke="#3D3B3A" stroke-width="2" stroke-linecap="round" stroke-linejoin="round"/>
</svg>
