<svg width="30" height="29" viewBox="0 0 30 29" fill="none" xmlns="http://www.w3.org/2000/svg">
<path fill-rule="evenodd" clip-rule="evenodd" d="M12.43 6.34374H17.57C19.8675 6.34374 21.6875 6.34374 23.1112 6.52862C24.5763 6.71953 25.7625 7.1207 26.6987 8.02453C27.6337 8.92957 28.0487 10.0763 28.2463 11.4924C28.4375 12.8699 28.4375 14.6281 28.4375 16.849V16.9843C28.4375 19.2052 28.4375 20.9646 28.2463 22.3409C28.0487 23.757 27.6337 24.9037 26.6987 25.8088C25.7625 26.7126 24.5763 27.1138 23.1112 27.3047C21.6863 27.4896 19.8675 27.4896 17.57 27.4896H12.43C10.1325 27.4896 8.3125 27.4896 6.88875 27.3047C5.42375 27.1138 4.2375 26.7126 3.30125 25.8088C2.36625 24.9037 1.95125 23.757 1.75375 22.3409C1.5625 20.9634 1.5625 19.2052 1.5625 16.9843V16.849C1.5625 14.6281 1.5625 12.8687 1.75375 11.4924C1.95125 10.0763 2.36625 8.92957 3.30125 8.02453C4.2375 7.1207 5.42375 6.71953 6.88875 6.52862C8.31375 6.34374 10.1325 6.34374 12.43 6.34374ZM7.1375 8.32541C5.88 8.48853 5.155 8.79545 4.625 9.30657C4.37424 9.55051 4.17249 9.83731 4.03 10.1524C6.31375 11.5855 7.815 12.5087 9.0775 13.1201C9.1193 12.8964 9.24649 12.6962 9.43386 12.5589C9.62123 12.4217 9.8551 12.3575 10.0891 12.3791C10.3231 12.4006 10.5402 12.5064 10.6974 12.6755C10.8545 12.8445 10.9402 13.0644 10.9375 13.2917V13.8451C13.5875 14.6184 16.4125 14.6184 19.0625 13.8451V13.2917C19.0632 13.0667 19.1504 12.85 19.3072 12.6838C19.464 12.5175 19.6791 12.4136 19.9108 12.3922C20.1425 12.3708 20.3741 12.4335 20.5606 12.568C20.7472 12.7025 20.8752 12.8993 20.92 13.1201C22.1838 12.5099 23.685 11.5855 25.9688 10.1512C25.8259 9.836 25.6237 9.5492 25.3725 9.30537C24.8438 8.79545 24.1187 8.48853 22.8612 8.32541C21.5775 8.15866 19.8837 8.15624 17.5 8.15624H12.5C10.1163 8.15624 8.42375 8.15866 7.1375 8.32541ZM26.425 12.0265C24.0662 13.5043 22.4487 14.4819 20.9375 15.1102V15.7083C20.9388 15.8273 20.9159 15.9454 20.87 16.0559C20.8241 16.1663 20.7561 16.2669 20.67 16.352C20.496 16.5237 20.2586 16.6217 20.01 16.6242C19.7614 16.6268 19.5218 16.5338 19.3442 16.3656C19.1665 16.1975 19.0652 15.968 19.0625 15.7277C16.3997 16.4062 13.6003 16.4062 10.9375 15.7277C10.9348 15.968 10.8335 16.1975 10.6558 16.3656C10.4782 16.5338 10.2386 16.6268 9.99 16.6242C9.74136 16.6217 9.50396 16.5237 9.33002 16.352C9.15608 16.1802 9.05985 15.9487 9.0625 15.7083V15.1102C7.5525 14.4819 5.93375 13.5031 3.575 12.0265C3.43875 13.23 3.4375 14.7888 3.4375 16.9167C3.4375 19.2209 3.44 20.8582 3.6125 22.1004C3.78125 23.3148 4.09875 24.0156 4.6275 24.5267C5.15625 25.0379 5.88125 25.3448 7.13875 25.5079C8.42375 25.6747 10.1163 25.6771 12.5 25.6771H17.5C19.8837 25.6771 21.5775 25.6747 22.8625 25.5079C24.1188 25.3448 24.8438 25.0379 25.3725 24.5267C25.9013 24.0156 26.2188 23.3148 26.3875 22.0992C26.56 20.8582 26.5625 19.2209 26.5625 16.9167C26.5625 14.79 26.5612 13.2312 26.425 12.0265ZM15 3.32291C14.4182 3.32274 13.8508 3.49696 13.3757 3.82157C12.9006 4.14618 12.5414 4.60521 12.3475 5.13541C12.308 5.24943 12.2453 5.3547 12.1633 5.44509C12.0812 5.53548 11.9814 5.60918 11.8695 5.66189C11.7577 5.7146 11.6362 5.74527 11.512 5.75211C11.3877 5.75895 11.2634 5.74182 11.1461 5.70173C11.0288 5.66164 10.9209 5.59938 10.8288 5.51859C10.7366 5.43779 10.662 5.34008 10.6094 5.23113C10.5567 5.12219 10.5269 5.0042 10.5219 4.88404C10.5169 4.76388 10.5366 4.64395 10.58 4.53124C10.9034 3.64795 11.5021 2.88328 12.2937 2.34245C13.0852 1.80163 14.0307 1.51123 15 1.51123C15.9693 1.51123 16.9148 1.80163 17.7063 2.34245C18.4979 2.88328 19.0966 3.64795 19.42 4.53124C19.4982 4.75669 19.4816 5.00281 19.3738 5.21653C19.266 5.43026 19.0756 5.59446 18.8437 5.67373C18.6118 5.753 18.3569 5.74099 18.1341 5.64029C17.9113 5.53958 17.7383 5.35826 17.6525 5.13541C17.4584 4.60531 17.0992 4.14638 16.6241 3.82179C16.1491 3.49721 15.5817 3.32291 15 3.32291Z" fill="#3D3B3A"/>
</svg>
